<svg width="1280" height="1280" viewBox="0 0 1280 1280" fill="none" xmlns="http://www.w3.org/2000/svg">
<rect width="1280" height="1280" fill="#052F4A"/>
<path d="M865.119 371.779C793.712 330.542 740.007 317.78 658.328 329.098C561.05 342.577 489.76 409.738 443.629 460.035C407.471 499.457 346.202 502.104 306.779 465.947C267.357 429.79 264.709 368.52 300.867 329.098C380.548 242.221 490.537 189.245 608.14 181.1C725.742 172.956 841.985 210.264 932.881 285.328C1023.78 360.391 1082.39 467.482 1096.63 584.503C1110.87 701.524 1079.65 819.546 1009.4 914.217C988.587 942.269 979.411 922.898 977.474 918.539C975.537 914.18 974.568 886.576 985.222 862.362C995.794 838.335 1028.64 763.229 1031.23 694.799C1036.59 552.951 987.956 442.718 865.119 371.779Z" fill="#0069A8"/>
<path d="M998.324 753.316C1043.45 782.049 1056.73 841.919 1028 887.04C989.369 947.706 937.055 998.469 875.254 1035.26C813.454 1072.04 743.89 1093.83 672.146 1098.87C600.402 1103.9 528.476 1092.05 462.142 1064.26C395.808 1036.47 336.914 993.511 290.186 938.838C282.037 926.771 286.174 912.702 297.534 906.424C306.734 901.339 314.484 904.002 324.17 910.298C333.856 916.594 412.423 976.219 478.658 994.487C555.961 1015.81 609.808 1024.93 683.996 994.487C737.695 972.455 763.877 947.32 800.709 902.459C834.282 861.567 842.235 818.114 864.6 782.992C893.333 737.87 953.203 724.584 998.324 753.316Z" fill="#52BDFF"/>
<ellipse cx="276.995" cy="689.499" rx="87.1716" ry="87.1717" transform="rotate(96.8865 276.995 689.499)" fill="#A3DDFF"/>
</svg>
