<svg viewBox="0 0 2620 733" fill="none" stroke="currentColor" stroke-linecap="round" stroke-linejoin="round" xmlns="http://www.w3.org/2000/svg">
    <path fill-rule="evenodd" clip-rule="evenodd" d="M293.477 34C130.331 144.776 35 313.956 35 440.177C35 603.324 167.256 698.654 293.477 698.654C419.698 698.654 551.953 603.324 551.953 440.177C551.953 313.956 456.623 144.776 293.477 34ZM208 440C208 426.193 196.808 415 183 415C169.193 415 158 426.193 158 440C158 504.79 210.524 557.313 275.313 557.313C289.121 557.313 300.313 546.12 300.313 532.313C300.313 518.506 289.121 507.313 275.313 507.313C238.138 507.313 208 477.176 208 440Z" fill="currentColor" />
    <path d="M292.5 34C129.34 144.833 34 314.102 34 440.389C34 603.62 166.268 699 292.5 699C418.733 699 551 603.62 551 440.389C551 314.102 455.662 144.833 292.5 34Z" stroke-width="50" />
    <path opacity="0.4" d="M1057.95 438.611C1057.95 315.362 1151.08 150.167 1310.46 42C1469.83 150.167 1562.96 315.362 1562.96 438.611C1562.96 597.915 1433.76 691 1310.46 691C1187.15 691 1057.95 597.915 1057.95 438.611Z" fill="currentColor"/>
    <path d="M1291.99 532.75C1241 532.75 1199.67 491.398 1199.67 440.389M1051.95 440.389C1051.95 314.102 1147.29 144.833 1310.46 34C1473.62 144.833 1568.96 314.102 1568.96 440.389C1568.96 603.62 1436.69 699 1310.46 699C1184.22 699 1051.95 603.62 1051.95 440.389Z" stroke-width="50" />
    <path d="M2585.96 440.389C2585.96 603.62 2453.69 699 2327.46 699C2201.22 699 2068.96 603.62 2068.96 440.389C2068.96 314.102 2164.3 144.833 2327.46 34C2418.19 95.6322 2487.94 175.334 2532 255.667M2308.99 532.75C2258 532.75 2216.67 491.398 2216.67 440.389" stroke-width="50" />
</svg>