<svg width="920" height="920" viewBox="0 0 920 920" fill="none" xmlns="http://www.w3.org/2000/svg">
<path d="M685.118 191.779C613.711 150.542 560.006 137.78 478.327 149.098C381.049 162.577 309.759 229.738 263.628 280.035C227.47 319.457 166.201 322.104 126.778 285.947C87.3556 249.79 84.7085 188.52 120.866 149.098C200.547 62.221 310.536 9.24471 428.139 1.10014C545.741 -7.04443 661.984 30.2642 752.88 105.328C843.776 180.391 902.391 287.482 916.63 404.503C930.868 521.524 899.645 639.546 829.401 734.217C808.586 762.269 799.41 742.898 797.473 738.539C795.536 734.18 794.567 706.576 805.221 682.362C815.793 658.335 848.641 583.229 851.228 514.799C856.592 372.951 807.955 262.718 685.118 191.779Z" fill="#0069A8"/>
<path d="M818.324 573.316C863.446 602.049 876.732 661.919 848 707.04C809.369 767.706 757.055 818.469 695.254 855.257C633.454 892.044 563.89 913.831 492.146 918.868C420.402 923.904 348.476 912.051 282.142 884.259C215.808 856.467 156.914 813.511 110.186 758.838C102.037 746.771 106.174 732.702 117.534 726.424C126.734 721.339 134.484 724.002 144.17 730.298C153.856 736.594 232.423 796.219 298.658 814.487C375.961 835.809 429.808 844.926 503.996 814.487C557.695 792.455 583.877 767.32 620.709 722.459C654.282 681.567 662.235 638.114 684.6 602.992C713.333 557.87 773.203 544.584 818.324 573.316Z" fill="#52BDFF"/>
<ellipse cx="96.9953" cy="509.499" rx="87.1716" ry="87.1717" transform="rotate(96.8865 96.9953 509.499)" fill="#A3DDFF"/>
</svg>